<?xml version="1.0" encoding="utf-8"?>
<!DOCTYPE svg PUBLIC "-//W3C//DTD SVG 1.1//EN" "http://www.w3.org/Graphics/SVG/1.1/DTD/svg11.dtd">
<svg xmlns="http://www.w3.org/2000/svg" xmlns:xlink="http://www.w3.org/1999/xlink" version="1.1" baseProfile="full" width="505.333" height="117.333" viewBox="0 0 505.33 117.33" enable-background="new 0 0 505.33 117.33" xml:space="preserve">
	<path fill="#008FAF" fill-opacity="1" stroke-width="0.2" stroke-linejoin="round" d="M 59.0423,5.11462L 445.835,5.11462C 473.97,5.11462 496.778,27.9228 496.778,56.058L 496.778,56.058C 496.778,84.1933 473.97,107.001 445.835,107.001L 59.0423,107.001C 30.907,107.001 8.09888,84.1933 8.09888,56.058L 8.09888,56.058C 8.09888,27.9228 30.907,5.11462 59.0423,5.11462 Z "/>
	<path fill="#008FAF" fill-opacity="1" stroke-width="0.2" stroke-linejoin="round" d="M 52.1733,4.42666C 183.08,3.01333 314.12,4.26666 445.067,3.79999C 473.267,2.94666 500.147,27.0667 500.213,55.6933C 502.413,84.72 476.24,110.627 447.333,110.173C 319.507,110.32 191.68,110.293 63.8533,110.187C 35.6,112.88 7.63998,91.2666 5.78665,62.6933C 2.29331,34.8133 24.6667,7.92001 52.1733,4.42666 Z M 13.2133,69.5733L 12.6933,70.36C 21.0267,87.7333 39.4133,97.5333 58.3067,98.2267C 188.107,98.2133 317.92,98.2267 447.72,98.2C 469.707,97.2133 493.827,82.1333 493.893,57.9733C 493.933,38.3733 481.04,21.2267 463.587,13.2133C 458.6,6.73332 449.92,5.86666 442.36,6.46666C 313.893,6.71999 185.427,6.39999 56.9733,6.62667C 26.9199,7.83999 3.35999,40.8267 13.2133,69.5733 Z "/>
	<path fill="#00B5EA" fill-opacity="1" stroke-width="0.2" stroke-linejoin="round" d="M 13.2133,69.5733C 3.35999,40.8267 26.9199,7.83999 56.9733,6.62667C 185.427,6.39999 313.893,6.71999 442.36,6.46666C 449.92,5.86666 458.6,6.73332 463.587,13.2133C 472.187,24.28 467.173,44.16 451.68,44.8533C 321.013,45.04 190.307,44.8933 59.6267,44.92C 41.7333,45.8267 22.3333,53.1467 13.2133,69.5733 Z "/>
	<path fill="#009AC7" fill-opacity="1" stroke-width="0.2" stroke-linejoin="round" d="M 463.587,13.2133C 481.04,21.2267 493.933,38.3733 493.893,57.9733C 493.827,82.1333 469.706,103.213 447.72,104.2C 317.92,104.227 188.107,104.213 58.3066,104.227C 39.4133,103.533 21.0267,87.7333 12.6933,70.36L 13.2133,69.5733C 22.3333,53.1467 41.7333,45.8267 59.6267,44.92C 190.307,44.8933 321.013,45.04 451.68,44.8533C 467.173,44.16 472.187,24.28 463.587,13.2133 Z "/>
	<text transform="matrix(1.0000000000000000 0.0000000000000000 0.0000000000000000 1.0000000000000000 103.00 67.00)" xml:space="preserve">
		<tspan style=" font-family:Lato; font-size:36.000000pt;" letter-spacing="-0.02em" fill="#FFFFFF" fill-opacity="1" stroke-width="0.2" stroke-linejoin="round">This is a button.</tspan>
	</text>
</svg>
